# xmcd CD database file
#
# Track frame offsets:
#	150
#	114504
#	188651
#
# Disc length: 2882 seconds
#
# Revision: 0
# Processed by: cddbd v1.5.1PL0 Copyright (c) Steve Scherf et al.
# Submitted via: CDex 1.51
#
DISCID=1d0b4003
DTITLE=Sonny Rollins - In Chicago [CD2]
DYEAR=2005
DGENRE=Jazz
TTITLE0=2005 - 04-22 d2t01
TTITLE1=2005 - 04-22 d2t02
TTITLE2=2005 - 04-22 d2t03
EXTD=YEAR: 2005
EXTT0=
EXTT1=
EXTT2=
PLAYORDER=
